<svg fill="none" viewBox="0 0 32 32" xmlns="http://www.w3.org/2000/svg">
<path d="m16 2.6667c7.352 0 13.333 5.9813 13.333 13.333s-5.9813 13.333-13.333 13.333-13.333-5.9813-13.333-13.333 5.9813-13.333 13.333-13.333zm0-2.6667c-8.836 0-16 7.164-16 16s7.164 16 16 16 16-7.164 16-16-7.164-16-16-16zm6.1533 8h-12.307c-1.0213 0-1.8467 0.82667-1.8467 1.8453v12.307c0 1.0213 0.82533 1.848 1.8467 1.848h12.307c1.0214 0 1.8467-0.8267 1.8467-1.8467v-12.307c0-1.02-0.8253-1.8467-1.8467-1.8467zm-6.1533 4.924c1.6987 0 3.0787 1.376 3.0787 3.076s-1.38 3.076-3.0787 3.076-3.076-1.3773-3.076-3.076 1.3773-3.076 3.076-3.076zm6 8.4613c0 0.34-0.276 0.6147-0.6147 0.6147h-10.771c-0.3387 0-0.6147-0.276-0.6147-0.6147v-6.7186h1.2653c-0.06 0.2106-0.104 0.4266-0.136 0.648-0.0306 0.224-0.0506 0.452-0.0506 0.6853 0 2.72 2.2026 4.924 4.9213 4.924s4.9213-2.204 4.9213-4.924c0-0.232-0.02-0.4613-0.052-0.6853-0.0306-0.2214-0.0773-0.4374-0.136-0.648h1.2667v6.7186zm0-9.3213c0 0.34-0.276 0.616-0.6147 0.616h-1.4506c-0.3414 0-0.6147-0.2773-0.6147-0.616v-1.4493c0-0.34 0.2733-0.6147 0.6147-0.6147h1.4506c0.3387 0 0.6147 0.276 0.6147 0.6147v1.4493z" fill="#4693FF"/>
</svg>
