<svg width="32" height="32" viewBox="0 0 32 32" fill="none" xmlns="http://www.w3.org/2000/svg">
<path d="M11.1013 8H12.0627L12.72 10.468L13.3307 8H14.3L13.1907 11.6693V14.1733H12.236V11.6693L11.1013 8ZM15.4973 9.58267C14.7507 9.58267 14.256 10.076 14.256 10.8053V13.0387C14.256 13.8413 14.6747 14.26 15.4973 14.26C16.1787 14.26 16.7147 13.804 16.7147 13.0387V10.8053C16.7147 10.092 16.184 9.58267 15.4973 9.58267ZM15.852 13C15.852 13.248 15.7253 13.4307 15.4973 13.4307C15.2627 13.4307 15.128 13.2387 15.128 13V10.8813C15.128 10.632 15.2427 10.4467 15.4813 10.4467C15.74 10.4467 15.852 10.6253 15.852 10.8813V13ZM19.004 9.62V13.0773C18.9013 13.2067 18.6707 13.4187 18.5053 13.4187C18.3253 13.4187 18.28 13.2947 18.28 13.112V9.62H17.4333V13.4267C17.4333 13.876 17.5707 14.24 18.024 14.24C18.28 14.24 18.636 14.1067 19.0027 13.672V14.1747H19.8493V9.62H19.004ZM20.472 18.8587C20.1733 18.8587 20.1107 19.0693 20.1107 19.368V19.8067H20.824V19.368C20.8253 19.0733 20.7627 18.8587 20.472 18.8587ZM17.3373 18.8853L17.1707 19.0173V21.72L17.3627 21.8733C17.4947 21.94 17.6853 21.9453 17.776 21.828C17.8213 21.7667 17.8453 21.6667 17.8453 21.5293V19.2893C17.8453 19.1427 17.8173 19.032 17.76 18.956C17.6613 18.828 17.4787 18.8133 17.3373 18.8853ZM20.5547 15.4213C18.82 15.3027 13.1773 15.304 11.444 15.4213C9.56933 15.5507 9.348 16.684 9.33333 19.6667C9.348 22.644 9.56667 23.7827 11.444 23.912C13.1773 24.0293 18.82 24.0307 20.5547 23.912C22.4307 23.784 22.652 22.6507 22.6667 19.6667C22.652 16.6893 22.4333 15.5507 20.5547 15.4213ZM12.3387 22.5467H11.4307V17.52H10.4907V16.6667H13.2787V17.52H12.3387V22.5467ZM15.5707 22.5467H14.764V22.068C14.616 22.244 14.46 22.3787 14.3 22.4707C13.8653 22.72 13.2693 22.7147 13.2693 21.8347V18.208H14.0747V21.5333C14.0747 21.708 14.1173 21.8253 14.2893 21.8253C14.4467 21.8253 14.6653 21.624 14.7627 21.5V18.2067H15.5693V22.5467H15.5707ZM18.6747 21.6467C18.6747 22.184 18.4747 22.6013 17.9373 22.6013C17.6413 22.6013 17.396 22.4933 17.1707 22.212V22.5453H16.3573V16.6667H17.1707V18.56C17.3533 18.3373 17.6 18.1547 17.888 18.1547C18.4787 18.1547 18.6747 18.6533 18.6747 19.2413V21.6467ZM21.6547 20.4787H20.112V21.2973C20.112 21.6227 20.14 21.904 20.4653 21.904C20.8053 21.904 20.8267 21.6747 20.8267 21.2973V20.996H21.656V21.3213C21.656 22.1573 21.2973 22.664 20.448 22.664C19.6787 22.664 19.284 22.1027 19.284 21.3213V19.3747C19.284 18.6213 19.7813 18.0987 20.5093 18.0987C21.2827 18.0987 21.656 18.5907 21.656 19.3747V20.4787H21.6547ZM16 2.66667C23.352 2.66667 29.3333 8.648 29.3333 16C29.3333 23.352 23.352 29.3333 16 29.3333C8.648 29.3333 2.66667 23.352 2.66667 16C2.66667 8.648 8.648 2.66667 16 2.66667ZM16 0C7.164 0 0 7.164 0 16C0 24.836 7.164 32 16 32C24.836 32 32 24.836 32 16C32 7.164 24.836 0 16 0Z" fill="#4693FF"/>
</svg>
