<svg  viewBox="0 0 720 720" xmlns="http://www.w3.org/2000/svg"><title>SubReader Logo</title><defs><linearGradient id="gradient" x1="0%" y1="0%" x2="0%" y2="100%"><stop offset="0%" stop-color="#00e4ff"></stop><stop offset="100%" stop-color="#00b0ff"></stop></linearGradient></defs><g fill="url(#gradient)"><path d="M360,638.32A278.39,278.39,0,0,0,556.85,163.08,278.46,278.46,0,0,0,108.23,478.92c12.65,26.71,17.51,62.6,15.63,117.68,7.11-.22,14.23-.34,21.23-.34,43.73,0,73.39,4.79,96.18,15.56A275.82,275.82,0,0,0,360,638.32m0,81.61a358.56,358.56,0,0,1-153.59-34.32c-12.3-5.81-35.68-7.74-61.32-7.74-50.86,0-110.63,7.6-110.63,7.6s18.29-133,0-171.61A358.59,358.59,0,0,1,0,359.93C0,161.1,161.18-.07,360-.07s360,161.17,360,360-161.18,360-360,360Z" transform="translate(0 0.07)"></path><path d="M360,405.27a45.34,45.34,0,1,1,45.34-45.34A45.34,45.34,0,0,1,360,405.27Zm145.09,0a45.34,45.34,0,1,1,45.34-45.34,45.34,45.34,0,0,1-45.34,45.34Zm-290.18,0a45.34,45.34,0,1,1,45.34-45.34,45.34,45.34,0,0,1-45.34,45.34Z" transform="translate(0 0.07)"></path></g></svg>