<svg id="Layer_1" data-name="Layer 1" 
  xmlns="http://www.w3.org/2000/svg" viewBox="0 0 3547 720">
  <title>SubReader Logo</title>
  <defs>
    <linearGradient id="gradient" x1="0%" y1="0%" x2="0%" y2="100%">
      <stop offset="0%" stop-color="#00e4ff" />
      <stop offset="100%" stop-color="#00b0ff" />
    </linearGradient>
  </defs>
  <g fill="url(#gradient)">
  <path d="M1124,242.79a17.91,17.91,0,0,1-9.59,2.5q-5.56,0-12.51-4.31t-16.41-9.59a133.86,133.86,0,0,0-22.1-9.59q-12.66-4.31-29.88-4.31-15.59,0-27.11,3.75a57.36,57.36,0,0,0-19.47,10.43,41.64,41.64,0,0,0-11.81,16,52.39,52.39,0,0,0-3.89,20.44q0,14.18,7.92,23.63a66.09,66.09,0,0,0,21,16.13,195.51,195.51,0,0,0,29.75,11.95q16.68,5.28,34.06,11.26A328.65,328.65,0,0,1,1098,345a117.72,117.72,0,0,1,29.74,20,90.65,90.65,0,0,1,21,29.61q7.93,17.51,7.93,42.53a138.58,138.58,0,0,1-9.32,51,117.63,117.63,0,0,1-27.24,41.42q-17.94,17.67-43.79,27.81t-59.22,10.15a190.29,190.29,0,0,1-37.81-3.76,199.18,199.18,0,0,1-35.73-10.7,186.52,186.52,0,0,1-32-16.68A157.54,157.54,0,0,1,885,514.69l21.69-35.86a27.64,27.64,0,0,1,7.36-6.54,18.1,18.1,0,0,1,9.59-2.64q7,0,15,5.7t19,12.65a145.6,145.6,0,0,0,25.86,12.65q14.87,5.7,35.73,5.7,32,0,49.48-15.15t17.52-43.51q0-15.85-7.93-25.86a64.16,64.16,0,0,0-21-16.82,158.36,158.36,0,0,0-29.75-11.54q-16.68-4.71-33.92-10.28a292.38,292.38,0,0,1-33.92-13.35A109.66,109.66,0,0,1,930,349.55Q917,337,909,318.27T901.12,272a110.71,110.71,0,0,1,34.33-79.79q16.83-16.12,41.29-25.86t55.88-9.73q35.58,0,65.61,11.12t51.16,31.14L1131,234.17q-3.06,6.12-7.09,8.62Zm281.21,320.28q-13.34,0-17.51-12.52l-4.73-22.79A197.32,197.32,0,0,1,1364.57,544a110.38,110.38,0,0,1-20.15,12.51,113.42,113.42,0,0,1-23.07,8.07,115.85,115.85,0,0,1-26.56,2.92q-23.36,0-41.28-7.93a82.57,82.57,0,0,1-30.17-22.38,97.79,97.79,0,0,1-18.49-34.34,145.27,145.27,0,0,1-6.25-43.78V277.82h68.67V459.09q0,26.13,12.09,40.45t36.28,14.32a72.63,72.63,0,0,0,33.37-7.93,116.3,116.3,0,0,0,29.46-21.82V277.82h68.68V563.07Zm364.49-85.64Q1761,504.69,1745,524.7A113.72,113.72,0,0,1,1706.4,556q-22.67,11.26-50.74,11.26a101.56,101.56,0,0,1-23.91-2.64,82.09,82.09,0,0,1-36.28-18.91,141.21,141.21,0,0,1-14.6-15.15l-3,19.18c-1.12,4.83-3,8.25-5.71,10.29s-6.35,3.06-11,3.06h-45.31V149.93h68.66V312.85a135.5,135.5,0,0,1,38.37-28.78q21.4-10.69,50.05-10.7a92.53,92.53,0,0,1,76,37.53q14,18.35,21.68,45.32t7.65,62q0,32-8.62,59.21Zm-66.31-101.61q-4-17.37-11.54-28.22a45.62,45.62,0,0,0-18.21-15.85,56.88,56.88,0,0,0-24.33-5q-21.4,0-36.56,9t-28.22,25.43V489.11q11.68,14.46,25.44,20.16a77.37,77.37,0,0,0,29.89,5.7,65.64,65.64,0,0,0,28.08-5.84,55,55,0,0,0,21.27-17.79q8.76-12,13.49-30.17t4.72-42.95q0-25-4-42.4ZM2087,347.88a115.77,115.77,0,0,1-27.8,25.85,145.72,145.72,0,0,1-37.67,17.8A74.14,74.14,0,0,1,2046,414.6l100.65,148.47h-67.28q-9.74,0-16.54-3.9a33.68,33.68,0,0,1-11.54-11.12l-84.52-128.72Q1962,412.1,1956.34,409T1939.52,406h-32V563.07h-74.79v-402h122.61q41.15,0,70.48,8.48t48.1,23.77a91.82,91.82,0,0,1,27.52,36.56q8.76,21.27,8.76,46.85a121.46,121.46,0,0,1-6,38.36A111,111,0,0,1,2087,347.88Zm-70.06-112.6q-20.16-16.4-61.58-16.4h-47.82V352.33h46.71q21.12,0,36.84-5.29t25.85-14.59a58.53,58.53,0,0,0,15.15-22.1,76.38,76.38,0,0,0,5-28.08q0-30.58-20.16-47Zm408.69,180.3a20.88,20.88,0,0,1-2.5,8.06,10.14,10.14,0,0,1-4.86,4.17,20.9,20.9,0,0,1-7.79,1.25H2234.21q3.06,43.94,23.64,64.5t54.49,20.58q16.68,0,28.78-3.9a133.41,133.41,0,0,0,21.12-8.62q9-4.71,15.85-8.62a26.63,26.63,0,0,1,13.21-3.89,14.87,14.87,0,0,1,7.22,1.67,16,16,0,0,1,5.29,4.73l20,25a114.57,114.57,0,0,1-25.58,22.38,143.54,143.54,0,0,1-29.61,14.46,162,162,0,0,1-31.42,7.64,223.87,223.87,0,0,1-31,2.23,152.3,152.3,0,0,1-55.32-9.87,123.88,123.88,0,0,1-44.49-29.19q-18.9-19.33-29.75-47.82t-10.84-66a157.79,157.79,0,0,1,9.46-54.91,131.85,131.85,0,0,1,27.1-44.75,127.5,127.5,0,0,1,43.09-30.17q25.46-11.12,57.41-11.12,27,0,49.63,8.62a108.61,108.61,0,0,1,39.06,25.16q16.41,16.55,25.58,40.59t9.18,54.91a99.89,99.89,0,0,1-.7,12.93ZM2361,362.47a58.24,58.24,0,0,0-11.12-20.71,52.79,52.79,0,0,0-18.9-14q-11.4-5.13-26.69-5.14-30,0-47,17t-21.69,48.1h129a85.62,85.62,0,0,0-3.62-25.17Zm308.32,200.6q-9.73,0-15.29-2.92t-8.34-11.82L2639.56,528a235.06,235.06,0,0,1-21.27,17.1,130,130,0,0,1-21.54,12.37,110.54,110.54,0,0,1-23.64,7.5,142,142,0,0,1-27.8,2.51,109.28,109.28,0,0,1-33.36-4.88A71.76,71.76,0,0,1,2485.67,548a66.43,66.43,0,0,1-17.09-24.27q-6.12-14.51-6.12-33.75a66.67,66.67,0,0,1,8.48-31.94q8.47-15.76,28.22-28.45t52.55-21.06q32.79-8.37,81.45-8.37V383.34q0-28.86-12.09-42.73t-35.17-13.86q-16.68,0-27.8,3.89a107.69,107.69,0,0,0-19.32,8.76q-8.21,4.86-15.15,8.76a30.76,30.76,0,0,1-15.3,3.89,19.87,19.87,0,0,1-11.95-3.61,28.45,28.45,0,0,1-8.06-8.9l-12.52-22q49.22-45,118.72-45,25,0,44.62,8.2a94.75,94.75,0,0,1,33.23,22.8,97.55,97.55,0,0,1,20.71,34.89,133.94,133.94,0,0,1,7.09,44.48V563.07Zm-36.15-120.94q-30,0-50.18,3.78t-32.39,9.66q-12.23,5.88-17.37,13.72a30.45,30.45,0,0,0-5.15,17.08q0,18.19,10.71,26t27.94,7.84a92.3,92.3,0,0,0,19.46-1.92,74.34,74.34,0,0,0,16.82-5.74,90,90,0,0,0,15.29-9.44,137.74,137.74,0,0,0,14.87-13.28V442.13ZM2962.9,563.07q-13.35,0-17.52-12.52L2939.82,523a169.89,169.89,0,0,1-18.63,18.07,117.35,117.35,0,0,1-21,13.9,108.8,108.8,0,0,1-24.19,9,116.23,116.23,0,0,1-27.94,3.2,92.89,92.89,0,0,1-76.31-38q-14-18.49-21.69-45.74t-7.64-62.27q0-31.69,8.62-58.94t24.74-47.27a115.58,115.58,0,0,1,38.64-31.28Q2837,272.54,2865,272.54q23.89,0,40.86,7.64a107.08,107.08,0,0,1,30.31,20.44V149.93h68.67V563.07Zm-26.69-212.41q-11.68-14.18-25.44-20a75.1,75.1,0,0,0-29.61-5.84,66.57,66.57,0,0,0-28.22,5.84,55.13,55.13,0,0,0-21.41,17.66q-8.75,11.82-13.48,30t-4.73,43q0,25,4,42.4T2828.89,492a43.86,43.86,0,0,0,18.35,15.85,58.33,58.33,0,0,0,24.19,4.86q21.41,0,36.42-8.89t28.36-25.3V350.66Zm378,64.92a20.71,20.71,0,0,1-2.5,8.06,10.11,10.11,0,0,1-4.87,4.17,20.84,20.84,0,0,1-7.78,1.25H3122.75q3.06,43.94,23.63,64.5t54.5,20.58q16.68,0,28.77-3.9a133.55,133.55,0,0,0,21.13-8.62q9-4.71,15.84-8.62a26.68,26.68,0,0,1,13.21-3.89,14.88,14.88,0,0,1,7.23,1.67,15.9,15.9,0,0,1,5.28,4.73l20,25a114.31,114.31,0,0,1-25.57,22.38,143.79,143.79,0,0,1-29.61,14.46,162.15,162.15,0,0,1-31.42,7.64,223.87,223.87,0,0,1-31,2.23,152.3,152.3,0,0,1-55.32-9.87A123.79,123.79,0,0,1,3095,528.18q-18.91-19.33-29.75-47.82t-10.84-66a158,158,0,0,1,9.45-54.91,132,132,0,0,1,27.11-44.75A127.5,127.5,0,0,1,3134,284.49q25.44-11.12,57.41-11.12,27,0,49.63,8.62a108.69,108.69,0,0,1,39.06,25.16q16.39,16.55,25.58,40.59t9.17,54.91a100.12,100.12,0,0,1-.69,12.93Zm-64.64-53.11a58.24,58.24,0,0,0-11.12-20.71,52.83,52.83,0,0,0-18.91-14q-11.4-5.13-26.69-5.14-30,0-47,17t-21.69,48.1h129a85.62,85.62,0,0,0-3.62-25.17Zm288.58-28.77q-.84,5-3.62,7.09a12.23,12.23,0,0,1-7.5,2.09,46.68,46.68,0,0,1-11.4-1.95q-7.23-1.95-19.19-1.95-21.41,0-36.69,11.82t-25.86,34.61V563.07h-68.67V277.82h40.31q10.56,0,14.73,3.89t5.57,13.35l4.17,34.47q15.28-26.4,35.86-41.7A75.5,75.5,0,0,1,3512,272.54q21.14,0,35,9.73l-8.89,51.43Z" transform="translate(0 0.07)"/>
  <path d="M360,638.32A278.39,278.39,0,0,0,556.85,163.08,278.46,278.46,0,0,0,108.23,478.92c12.65,26.71,17.51,62.6,15.63,117.68,7.11-.22,14.23-.34,21.23-.34,43.73,0,73.39,4.79,96.18,15.56A275.82,275.82,0,0,0,360,638.32m0,81.61a358.56,358.56,0,0,1-153.59-34.32c-12.3-5.81-35.68-7.74-61.32-7.74-50.86,0-110.63,7.6-110.63,7.6s18.29-133,0-171.61A358.59,358.59,0,0,1,0,359.93C0,161.1,161.18-.07,360-.07s360,161.17,360,360-161.18,360-360,360Z" transform="translate(0 0.07)"/>
  <path d="M360,405.27a45.34,45.34,0,1,1,45.34-45.34A45.34,45.34,0,0,1,360,405.27Zm145.09,0a45.34,45.34,0,1,1,45.34-45.34,45.34,45.34,0,0,1-45.34,45.34Zm-290.18,0a45.34,45.34,0,1,1,45.34-45.34,45.34,45.34,0,0,1-45.34,45.34Z" transform="translate(0 0.07)"/>
  </g>
</svg>