<svg width="32" height="32" viewBox="0 0 32 32" fill="none" xmlns="http://www.w3.org/2000/svg">
<path d="M16 2.66667C23.352 2.66667 29.3333 8.648 29.3333 16C29.3333 23.352 23.352 29.3333 16 29.3333C8.648 29.3333 2.66667 23.352 2.66667 16C2.66667 8.648 8.648 2.66667 16 2.66667ZM16 0C7.164 0 0 7.164 0 16C0 24.836 7.164 32 16 32C24.836 32 32 24.836 32 16C32 7.164 24.836 0 16 0ZM16.028 23.7653C10.8187 23.7653 8 20.5147 8 16.3173C8 11.8333 11.1747 8.23467 16.8507 8.23467C20.9933 8.23467 24 10.9267 24 14.636C24 20.444 17.1133 21.9773 17.4587 18.664C16.9867 19.404 16.2227 20.2333 14.7573 20.2333C13.0813 20.2333 12.0373 19.0067 12.0373 17.0293C12.0373 14.0667 13.9853 11.5627 16.2907 11.5627C17.396 11.5627 18.156 12.1467 18.4747 13.0427L18.784 11.9547H20.3427C20.18 12.5093 18.7947 17.64 18.7947 17.64C18.364 19.4173 19.6947 19.448 20.8773 18.504C23.0973 16.784 23.2107 12.2853 20.212 10.4093C16.9973 8.48267 9.68267 9.67467 9.68267 16.2053C9.68267 19.9467 12.3173 22.46 16.2347 22.46C18.5267 22.46 19.9293 21.84 21.0987 21.1613L21.8827 22.2933C20.7413 22.936 18.908 23.7653 16.028 23.7653ZM14.4653 14.228C13.9893 15.1213 13.6813 16.2787 13.6813 17.1773C13.6813 19.584 16.0293 19.5987 17.1827 17.3373C17.6573 16.408 17.964 15.2227 17.964 14.3173C17.964 12.3733 15.6333 12.028 14.4653 14.228Z" fill="#4693FF"/>
</svg>
